<?xml version="1.0" encoding="UTF-8"?>
<svg width="2443px" height="516px" viewBox="0 0 900 516" version="1.1" xmlns="http://www.w3.org/2000/svg" xmlns:xlink="http://www.w3.org/1999/xlink">
    <!-- Generator: Sketch 52.5 (67469) - http://www.bohemiancoding.com/sketch -->
    <title>Artboard Copy</title>
    <desc>Created with Sketch.</desc>
    <g id="Artboard-Copy" stroke="none" stroke-width="1" fill="none" fill-rule="evenodd">

        <g id="Bird-Logo" transform="translate(200, 126.000000)">
            <path d="M131.751534,12.8562009 L131.751534,35.8574777" id="Line-14" stroke="#373A42" stroke-width="11" stroke-linecap="square"></path>
            <path d="M132,8.17453198 C132,2.72484399 137.061363,0 147.184089,0 C157.306815,0 162.368177,2.72484399 162.368177,8.17453198" id="Line-15" stroke="#373A42" stroke-width="11" stroke-linecap="square"></path>
            <path d="M162.751534,11.0795455 L162.751534,35.5" id="Line-14" stroke="#373A42" stroke-width="11" stroke-linecap="square"></path>
            <path d="M147.737136,273.495451 C118.214669,236.363181 97.1572716,212.424333 84.5649445,201.678908 C71.9726175,190.933483 56.117636,183.373847 37,179" id="Line-8" stroke="#373A42" stroke-width="11" stroke-linecap="square"></path>
            <path d="M195.738182,221.738246 L248.887273,273.415445" id="Line-9" stroke="#373A42" stroke-width="11" stroke-linecap="square"></path>
            <path d="M279,224 L325.505455,274.938954" id="Line-9" stroke="#373A42" stroke-width="11" stroke-linecap="square"></path>
            <path d="M238.738182,223.738246 L288.196364,274.6772" id="Line-9" stroke="#373A42" stroke-width="11" stroke-linecap="square"></path>
            <path d="M210.476364,322.510474 L210.476364,277" id="Line-4" stroke="#373A42" stroke-width="11" stroke-linecap="square"></path>
            <path d="M181.476364,338.500005 L181.476364,277" id="Line-4" stroke="#373A42" stroke-width="11" stroke-linecap="square"></path>
            <path d="M170.738182,277.214737 L360.450909,277.214737" id="Line-5" stroke="#373A42" stroke-width="11" stroke-linecap="square"></path>
            <path d="M198.5,88.5 L361.065455,275.702479" id="Line-10" stroke="#373A42" stroke-width="11" stroke-linecap="square"></path>
            <path d="M28.0128861,139 C27.5353454,172.791714 40.3304969,202.321542 66.3983407,227.589485 C105.500106,265.4914 140.954704,276.313702 168.267432,276.313702" id="Line-6" stroke="#373A42" stroke-width="11" stroke-linecap="square"></path>
            <path d="M28,137.873176 C29.2095266,118.058917 35.8252015,100.64665 47.8470248,85.6363733 C59.8688481,70.6260969 78.5865065,60.0806391 104,54" id="Line-7" stroke="#373A42" stroke-width="11" stroke-linecap="square"></path>
            <ellipse id="Oval-2" fill="#373A42" cx="66" cy="118.275521" rx="11.2745455" ry="11.2755213"></ellipse>
            <ellipse id="Oval-2" stroke="#373A42" stroke-width="9" cx="147.274545" cy="80.2755213" rx="11.2745455" ry="11.2755213"></ellipse>
            <path d="M132.5,40.5 L141.5,67.5" id="Line-22" stroke="#373A42" stroke-width="11" stroke-linecap="square"></path>
            <path d="M162.5,36.5 L153.5,67.5" id="Line-22" stroke="#373A42" stroke-width="11" stroke-linecap="square"></path>
            <polygon id="Triangle" stroke="#373A42" stroke-width="11" transform="translate(14.246761, 138.481257) rotate(-89.000000) translate(-14.246761, -138.481257) " points="14.2467606 124.515797 30.4867606 152.446718 -1.99323939 152.446718"></polygon>
            <path d="M98.0594721,84.5232007 C97.5675586,73.6616443 100.127231,63.9300587 105.73849,55.3284436 C111.349749,46.7268285 119.668685,40.4986137 130.695298,36.6437991" id="Line-11" stroke="#373A42" stroke-width="11" stroke-linecap="square"></path>
            <path d="M164,36.6437991 C173.935189,40.3831333 181.719784,45.9001014 187.353784,53.1947033 C192.987785,60.4893053 196.101623,70.9321377 196.695298,84.5232007" id="Line-12" stroke="#373A42" stroke-width="11" stroke-linecap="square"></path>
            <path d="M99,93 C101.052998,103.4759 106.052998,112.309233 114,119.5 C121.947002,126.690767 132.280335,130.5241 145,131" id="Line-13" stroke="#373A42" stroke-width="11" stroke-linecap="square"></path>
            <path d="M146.37671,83.9334892 C146.802469,99.0628573 152.140211,110.885982 162.389936,119.402865 C172.639662,127.919747 184.333901,131.458657 197.472654,130.019594" id="Line-13" stroke="#373A42" stroke-width="11" stroke-linecap="square" transform="translate(171.924682, 107.132546) rotate(-86.000000) translate(-171.924682, -107.132546) "></path>
            <path d="M118.023293,83.7168169 C117.830625,77.8020907 118.833175,72.5026968 121.030942,67.8186353 C123.22871,63.1345738 126.486996,59.7429617 130.805801,57.6437991" id="Line-11" stroke="#373A42" stroke-width="11" stroke-linecap="square"></path>
            <path d="M164,58.6437991 C167.447463,61.1812199 170.172072,64.8792225 172.173825,69.7378068 C174.175577,74.596391 175.148652,79.0729204 175.093048,83.167395" id="Line-12" stroke="#373A42" stroke-width="11" stroke-linecap="square"></path>
            <path d="M118,82.5 C117.494017,89.7526312 120.32735,96.0859646 126.5,101.5 C132.67265,106.914035 140.339317,109.247369 149.5,108.5" id="Line-13" stroke="#373A42" stroke-width="11" stroke-linecap="square"></path>
            <path d="M149.475333,85.6630737 C150.528311,93.1554133 153.236027,98.8856934 157.598481,102.853914 C161.960934,106.822135 167.491862,108.847791 174.191264,108.930883" id="Line-13" stroke="#373A42" stroke-width="11" stroke-linecap="square" transform="translate(161.833298, 97.296978) rotate(-85.000000) translate(-161.833298, -97.296978) "></path>
        </g>
        <g id="Microphone" transform="translate(80, 5.000000)" stroke="#373A42" stroke-width="11">
            <path d="M36.5,0.5 L36.5,180.5" id="Line-16" stroke-linecap="square"></path>
            <rect id="Rectangle-3" x="5.5" y="189.5" width="62" height="124" rx="31"></rect>
            <path d="M10.5,222.5 L29.5,222.5" id="Line" stroke-linecap="square"></path>
            <path d="M46.5,222.5 L62.5,222.5" id="Line" stroke-linecap="square"></path>
            <path d="M10.5,279.5 L28.5,279.5" id="Line" stroke-linecap="square"></path>
            <path d="M45.5,279.5 L62.5,279.5" id="Line" stroke-linecap="square"></path>
            <path d="M48.5,251.5 L62.5,251.5" id="Line" stroke-linecap="square"></path>
            <path d="M10.5,251.5 L24.5,251.5" id="Line" stroke-linecap="square"></path>
        </g>
    </g>
</svg>
