<?xml version="1.0"?>
<svg xmlns="http://www.w3.org/2000/svg" height="512px" viewBox="-11 0 511 511.99745" width="512px"><path d="m490.460938 315.839844c-.898438-2.769532-3.292969-4.789063-6.175782-5.207032l-34.980468-5.082031-15.644532-31.699219c-1.289062-2.609374-3.945312-4.265624-6.859375-4.265624-2.910156 0-5.570312 1.65625-6.859375 4.265624l-15.644531 31.699219-34.980469 5.082031c-2.878906.417969-5.273437 2.4375-6.171875 5.207032-.902343 2.765625-.152343 5.808594 1.933594 7.839844l25.3125 24.671874-5.976563 34.839844c-.492187 2.871094.6875 5.769532 3.042969 7.480469s5.476563 1.9375 8.054688.582031l31.289062-16.449218 31.289063 16.449218c1.117187.589844 2.339844.878906 3.554687.878906 1.589844 0 3.167969-.492187 4.5-1.460937 2.355469-1.710937 3.535157-4.609375 3.039063-7.480469l-5.972656-34.839844 25.3125-24.671874c2.085937-2.035157 2.835937-5.074219 1.9375-7.839844zm-40.804688 24.363281c-1.804688 1.757813-2.625 4.292969-2.199219 6.773437l4.035157 23.527344-21.128907-11.109375c-2.230469-1.171875-4.890625-1.171875-7.121093 0l-21.128907 11.109375 4.035157-23.527344c.425781-2.480468-.394532-5.011718-2.199219-6.769531l-17.09375-16.664062 23.625-3.429688c2.488281-.363281 4.644531-1.929687 5.757812-4.1875l10.5625-21.40625 10.566407 21.40625c1.113281 2.257813 3.265624 3.824219 5.757812 4.1875l23.621094 3.429688zm0 0" fill="#FFFFFF"/><path d="m327.03125 71.460938 23.570312-.417969 13.703126 19.179687c1.449218 2.027344 3.78125 3.203125 6.222656 3.203125.410156 0 .824218-.035156 1.238281-.101562 2.871094-.46875 5.230469-2.53125 6.078125-5.3125l6.886719-22.546875 22.480469-7.109375c2.773437-.875 4.8125-3.253907 5.25-6.132813.441406-2.878906-.785157-5.757812-3.171876-7.425781l-19.316406-13.515625.1875-23.574219c.023438-2.910156-1.609375-5.582031-4.210937-6.890625-2.597657-1.308594-5.714844-1.027344-8.042969.722656l-18.824219 14.191407-22.359375-7.457031c-2.761718-.921876-5.808594-.199219-7.855468 1.871093-2.050782 2.070313-2.746094 5.121094-1.796876 7.875l7.679688 22.289063-14.007812 18.960937c-1.726563 2.339844-1.980469 5.460938-.644532 8.050781 1.335938 2.585938 4.039063 4.175782 6.933594 4.140626zm23.492188-32.335938-3.941407-11.4375 11.472657 3.828125c2.386718.796875 5.015624.367187 7.027343-1.148437l9.660157-7.28125-.097657 12.09375c-.019531 2.519531 1.203125 4.886718 3.265625 6.328124l9.910156 6.9375-11.535156 3.644532c-2.402344.761718-4.273437 2.652344-5.007812 5.058594l-3.535156 11.570312-7.03125-9.84375c-1.4375-2.011719-3.757813-3.203125-6.226563-3.203125-.042969 0-.089844 0-.132813.003906l-12.09375.214844 7.183594-9.730469c1.496094-2.023437 1.902344-4.65625 1.082032-7.035156zm0 0" fill="#FFFFFF"/><path d="m445.050781 173.222656c-.699219-1.980468-2.226562-3.554687-4.1875-4.304687-6.730469-2.578125-66.484375-24.941407-91.101562-16.300781-16.109375 5.65625-27.585938 18.632812-32.046875 33.890624-7.734375.796876-16.226563 2.015626-25.351563 3.625v-119.277343c0-18.949219-15.414062-34.363281-34.363281-34.363281-18.945312 0-34.359375 15.414062-34.359375 34.363281v63.28125c-5.460937-3.652344-12.015625-5.789063-19.066406-5.789063-10.777344 0-20.40625 4.992188-26.710938 12.78125-6.304687-7.789062-15.933593-12.78125-26.710937-12.78125-7.050782 0-13.605469 2.136719-19.0625 5.789063v-14.765625c0-18.949219-15.414063-34.363282-34.363282-34.363282-18.945312 0-34.359374 15.414063-34.359374 34.363282v51.6875c0 4.226562 3.421874 7.648437 7.648437 7.648437 4.222656 0 7.648437-3.421875 7.648437-7.648437v-51.6875c0-10.511719 8.550782-19.0625 19.0625-19.0625 10.511719 0 19.0625 8.550781 19.0625 19.0625v42.671875c0 .078125.011719.148437.011719.222656 0 .148437-.011719.292969-.011719.441406v81.621094c-13.625 5.765625-26.386718 11.582031-38.125 17.347656v-57.996093c0-4.222657-3.425781-7.648438-7.648437-7.648438-4.226563 0-7.652344 3.425781-7.652344 7.648438v65.796874c-11.664062 6.1875-22.023437 12.273438-30.820312 18.136719-25.265625 16.84375-35.175781 29.976563-31.191407 41.335938 3.199219 9.117187 14.207032 13.589843 34.054688 13.589843 7.910156 0 17.246094-.722656 28.03125-2.128906 1.089844 24.03125 15.660156 45.660156 37.417969 55.847656v108.089844c0 4.226563 3.425781 7.648438 7.648437 7.648438h129.347656c4.222657 0 7.648438-3.421875 7.648438-7.648438v-44.144531c0-4.226563-3.425781-7.648437-7.648438-7.648437-4.226562 0-7.652343 3.421874-7.652343 7.648437v36.496094h-114.046875v-105.527344c0-3.199219-1.992188-6.0625-4.996094-7.175781-19.25-7.113282-32.234375-25.507813-32.480469-45.890625 27.824219-4.765625 61.023438-13.1875 95.898438-24.339844-1.015625 4.660156-1.546875 9.472656-1.546875 14.375 0 4.222656 3.421875 7.648437 7.648437 7.648437 4.222657 0 7.648438-3.425781 7.648438-7.648437 0-17.867187 9.074219-34.183594 24.269531-43.652344 2.898438-1.808593 4.25-5.3125 3.3125-8.597656-.941406-3.28125-3.941406-5.546875-7.355469-5.546875h-16.628906c-10.511719 0-19.0625-8.550781-19.0625-19.0625s8.550781-19.0625 19.0625-19.0625h78.730469c10.511718 0 19.066406 8.550781 19.066406 19.0625 0 .179688-.011719.359375-.015625.539062l-.003906.128907c-.007813.179687-.007813.359375 0 .539062l.003906.132813c.003906.175781.015625.355468.015625.535156v62.042969c-1 26.132812-6.320312 42.828125-17.234375 54.117187-12.742187 13.1875-34.496094 19.59375-66.503906 19.59375-4.222657 0-7.648438 3.425782-7.648438 7.648438 0 4.226562 3.425781 7.652344 7.648438 7.652344 8.699219 0 16.761719-.460938 24.21875-1.375v26.722656c0 4.222656 3.425781 7.648437 7.648437 7.648437 4.226563 0 7.648438-3.425781 7.648438-7.648437v-29.445313c16.15625-3.890625 28.726562-10.582031 37.988281-20.164062 13.746094-14.222657 20.386719-34.058594 21.527344-64.316407 0-.097656.003906-.191406.003906-.289062v-54.4375c12.269531-6.34375 23.109375-12.535156 32.320313-18.46875 8.515624 5.96875 18.773437 9.296875 29.359374 9.296875 5.59375 0 11.277344-.925781 16.84375-2.878906 24.617188-8.640625 57.289063-63.441407 60.933594-69.664063 1.058594-1.808594 1.269532-3.992187.578125-5.96875zm-312.964843-10.515625c0-10.511719 8.554687-19.0625 19.066406-19.0625 10.511718 0 19.0625 8.550781 19.0625 19.0625v61.960938c-7.71875 6.308593-12.65625 15.894531-12.65625 26.613281 0 5.332031 1.230468 10.382812 3.40625 14.890625-2.941406 1.789063-6.304688 2.765625-9.816406 2.765625-10.511719 0-19.0625-8.550781-19.0625-19.0625zm56.335937 122.761719c-2.90625 3.480469-5.429687 7.242188-7.554687 11.21875-43.230469 14.378906-84.414063 24.71875-116.308594 29.167969-38.421875 5.363281-49.003906.074219-49.734375-1.636719-.386719-1.378906 2.9375-9.695312 26.210937-25.105469 18.707032-12.390625 45.875-26.414062 77.074219-39.828125 4.101563 14.386719 17.355469 24.953125 33.042969 24.953125 7.027344 0 13.742187-2.125 19.425781-6.054687 5.007813 3.980468 11.144531 6.601562 17.84375 7.285156zm35.21875-68.546875h-31.71875c-2.191406 0-4.332031.210937-6.410156.605469v-54.820313c0-10.511719 8.550781-19.0625 19.0625-19.0625s19.0625 8.550781 19.0625 19.0625v54.214844zm53.425781.609375c-2.078125-.394531-4.21875-.609375-6.410156-.609375h-31.71875v-146.066406c0-10.511719 8.550781-19.0625 19.0625-19.0625s19.066406 8.550781 19.066406 19.0625zm27.378906 27.546875c-1.5-8.175781-5.890624-15.347656-12.082031-20.410156v-20.035157c8.355469-1.523437 16.15625-2.707031 23.304688-3.542968.035156 5.492187.949219 11.070312 2.867187 16.535156 1.917969 5.464844 4.683594 10.390625 8.089844 14.699219-6.59375 4.125-14.007812 8.390625-22.179688 12.753906zm74.367188-9.695313c-4.011719 1.40625-8.101562 2.074219-12.128906 2.074219-15.15625 0-29.378906-9.464843-34.675782-24.558593-6.707031-19.105469 3.378907-40.101563 22.484376-46.808594 2.4375-.855469 5.628906-1.234375 9.371093-1.234375 16.625 0 44.050781 7.527343 63.839844 14.453125-13.625 21.773437-35.625 51.417968-48.890625 56.074218zm0 0" fill="#FFFFFF"/></svg>
